<svg width="58" height="12" viewBox="0 0 58 12" fill="none" xmlns="http://www.w3.org/2000/svg">
<path d="M7.28711 9.40039V11H2.27637V9.40039H7.28711ZM2.93945 1.04688V11H0.888672V1.04688H2.93945ZM8.02539 7.37695V7.2334C8.02539 6.69108 8.10286 6.19206 8.25781 5.73633C8.41276 5.27604 8.63835 4.87728 8.93457 4.54004C9.23079 4.2028 9.59538 3.94076 10.0283 3.75391C10.4613 3.5625 10.958 3.4668 11.5186 3.4668C12.0791 3.4668 12.5781 3.5625 13.0156 3.75391C13.4531 3.94076 13.82 4.2028 14.1162 4.54004C14.417 4.87728 14.6449 5.27604 14.7998 5.73633C14.9548 6.19206 15.0322 6.69108 15.0322 7.2334V7.37695C15.0322 7.91471 14.9548 8.41374 14.7998 8.87402C14.6449 9.32975 14.417 9.72852 14.1162 10.0703C13.82 10.4076 13.4554 10.6696 13.0225 10.8564C12.5895 11.0433 12.0928 11.1367 11.5322 11.1367C10.9717 11.1367 10.4727 11.0433 10.0352 10.8564C9.60221 10.6696 9.23535 10.4076 8.93457 10.0703C8.63835 9.72852 8.41276 9.32975 8.25781 8.87402C8.10286 8.41374 8.02539 7.91471 8.02539 7.37695ZM9.99414 7.2334V7.37695C9.99414 7.68685 10.0215 7.97624 10.0762 8.24512C10.1309 8.514 10.2174 8.75098 10.3359 8.95605C10.459 9.15658 10.6185 9.3138 10.8145 9.42773C11.0104 9.54167 11.2497 9.59863 11.5322 9.59863C11.8057 9.59863 12.0404 9.54167 12.2363 9.42773C12.4323 9.3138 12.5895 9.15658 12.708 8.95605C12.8265 8.75098 12.9131 8.514 12.9678 8.24512C13.027 7.97624 13.0566 7.68685 13.0566 7.37695V7.2334C13.0566 6.93262 13.027 6.65007 12.9678 6.38574C12.9131 6.11686 12.8242 5.87988 12.7012 5.6748C12.5827 5.46517 12.4255 5.30111 12.2295 5.18262C12.0335 5.06413 11.7965 5.00488 11.5186 5.00488C11.2406 5.00488 11.0036 5.06413 10.8076 5.18262C10.6162 5.30111 10.459 5.46517 10.3359 5.6748C10.2174 5.87988 10.1309 6.11686 10.0762 6.38574C10.0215 6.65007 9.99414 6.93262 9.99414 7.2334ZM19.2979 9.59863C19.5394 9.59863 19.7536 9.55306 19.9404 9.46191C20.1273 9.36621 20.2731 9.23405 20.3779 9.06543C20.4873 8.89225 20.5443 8.68945 20.5488 8.45703H22.4014C22.3968 8.97656 22.2578 9.43913 21.9844 9.84473C21.7109 10.2458 21.3441 10.5625 20.8838 10.7949C20.4235 11.0228 19.9085 11.1367 19.3389 11.1367C18.7646 11.1367 18.2633 11.041 17.835 10.8496C17.4111 10.6582 17.0579 10.3939 16.7754 10.0566C16.4928 9.71484 16.2809 9.31836 16.1396 8.86719C15.9984 8.41146 15.9277 7.92383 15.9277 7.4043V7.20605C15.9277 6.68197 15.9984 6.19434 16.1396 5.74316C16.2809 5.28743 16.4928 4.89095 16.7754 4.55371C17.0579 4.21191 17.4111 3.94531 17.835 3.75391C18.2588 3.5625 18.7555 3.4668 19.3252 3.4668C19.9313 3.4668 20.4622 3.58301 20.918 3.81543C21.3783 4.04785 21.7383 4.38053 21.998 4.81348C22.2624 5.24186 22.3968 5.75 22.4014 6.33789H20.5488C20.5443 6.0918 20.4919 5.86849 20.3916 5.66797C20.2959 5.46745 20.1546 5.30794 19.9678 5.18945C19.7855 5.06641 19.5599 5.00488 19.291 5.00488C19.0039 5.00488 18.7692 5.06641 18.5869 5.18945C18.4046 5.30794 18.2633 5.47201 18.1631 5.68164C18.0628 5.88672 17.9922 6.12142 17.9512 6.38574C17.9147 6.64551 17.8965 6.91895 17.8965 7.20605V7.4043C17.8965 7.69141 17.9147 7.96712 17.9512 8.23145C17.9876 8.49577 18.056 8.73047 18.1562 8.93555C18.2611 9.14062 18.4046 9.30241 18.5869 9.4209C18.7692 9.53939 19.0062 9.59863 19.2979 9.59863ZM27.5352 9.33203V6.03711C27.5352 5.80013 27.4964 5.59733 27.4189 5.42871C27.3415 5.25553 27.2207 5.12109 27.0566 5.02539C26.8971 4.92969 26.6898 4.88184 26.4346 4.88184C26.2158 4.88184 26.0267 4.92057 25.8672 4.99805C25.7077 5.07096 25.5846 5.17806 25.498 5.31934C25.4115 5.45605 25.3682 5.61784 25.3682 5.80469H23.3994C23.3994 5.49023 23.4723 5.19173 23.6182 4.90918C23.764 4.62663 23.9759 4.37826 24.2539 4.16406C24.5319 3.94531 24.8623 3.77441 25.2451 3.65137C25.6325 3.52832 26.0654 3.4668 26.5439 3.4668C27.1182 3.4668 27.6286 3.5625 28.0752 3.75391C28.5218 3.94531 28.8727 4.23242 29.1279 4.61523C29.3877 4.99805 29.5176 5.47656 29.5176 6.05078V9.21582C29.5176 9.62142 29.5426 9.9541 29.5928 10.2139C29.6429 10.4691 29.7158 10.6924 29.8115 10.8838V11H27.8223C27.7266 10.7995 27.6536 10.5488 27.6035 10.248C27.5579 9.94271 27.5352 9.63737 27.5352 9.33203ZM27.7949 6.49512L27.8086 7.60938H26.708C26.4482 7.60938 26.2227 7.639 26.0312 7.69824C25.8398 7.75749 25.6826 7.8418 25.5596 7.95117C25.4365 8.05599 25.3454 8.17904 25.2861 8.32031C25.2314 8.46159 25.2041 8.61654 25.2041 8.78516C25.2041 8.95378 25.2428 9.10645 25.3203 9.24316C25.3978 9.37533 25.5094 9.48014 25.6553 9.55762C25.8011 9.63053 25.972 9.66699 26.168 9.66699C26.4642 9.66699 26.7217 9.60775 26.9404 9.48926C27.1592 9.37077 27.3278 9.22493 27.4463 9.05176C27.5693 8.87858 27.6331 8.71452 27.6377 8.55957L28.1572 9.39355C28.0843 9.5804 27.984 9.77409 27.8564 9.97461C27.7334 10.1751 27.5762 10.3643 27.3848 10.542C27.1934 10.7152 26.9632 10.8587 26.6943 10.9727C26.4255 11.082 26.1064 11.1367 25.7373 11.1367C25.2679 11.1367 24.8418 11.0433 24.459 10.8564C24.0807 10.665 23.7799 10.403 23.5566 10.0703C23.3379 9.73307 23.2285 9.35026 23.2285 8.92188C23.2285 8.53451 23.3014 8.19043 23.4473 7.88965C23.5931 7.58887 23.8073 7.33594 24.0898 7.13086C24.377 6.92122 24.7347 6.764 25.1631 6.65918C25.5915 6.5498 26.0882 6.49512 26.6533 6.49512H27.7949ZM33.1133 0.5V11H31.1377V0.5H33.1133ZM37.2012 11H35.2256V3.26855C35.2256 2.63965 35.3532 2.10872 35.6084 1.67578C35.8682 1.24284 36.2373 0.914714 36.7158 0.691406C37.1989 0.468099 37.7822 0.356445 38.4658 0.356445C38.8532 0.356445 39.2292 0.395182 39.5938 0.472656C39.9583 0.545573 40.3343 0.641276 40.7217 0.759766L40.4346 2.33887C40.1839 2.26139 39.915 2.18848 39.6279 2.12012C39.3408 2.05176 38.9945 2.01758 38.5889 2.01758C38.1331 2.01758 37.7868 2.12467 37.5498 2.33887C37.3174 2.5485 37.2012 2.8584 37.2012 3.26855V11ZM38.6709 3.60352V4.99805H34.125V3.60352H38.6709ZM41.6377 3.60352V11H39.6621V3.60352H41.6377ZM45.2129 5.18262V11H43.2441V3.60352H45.0898L45.2129 5.18262ZM44.9258 7.04199H44.3926C44.3926 6.49512 44.4632 6.00293 44.6045 5.56543C44.7458 5.12337 44.944 4.7474 45.1992 4.4375C45.4544 4.12305 45.7575 3.88379 46.1084 3.71973C46.4639 3.55111 46.8604 3.4668 47.2979 3.4668C47.6442 3.4668 47.9609 3.51693 48.248 3.61719C48.5352 3.71745 48.7812 3.87695 48.9863 4.0957C49.196 4.31445 49.3555 4.60384 49.4648 4.96387C49.5788 5.32389 49.6357 5.76367 49.6357 6.2832V11H47.6533V6.27637C47.6533 5.94824 47.6077 5.69303 47.5166 5.51074C47.4255 5.32845 47.291 5.20085 47.1133 5.12793C46.9401 5.05046 46.7259 5.01172 46.4707 5.01172C46.2064 5.01172 45.9762 5.06413 45.7803 5.16895C45.5889 5.27376 45.4294 5.4196 45.3018 5.60645C45.1787 5.78874 45.0853 6.00293 45.0215 6.24902C44.9577 6.49512 44.9258 6.75944 44.9258 7.04199ZM55.501 9.38672V0.5H57.4834V11H55.6992L55.501 9.38672ZM50.8252 7.39062V7.24707C50.8252 6.68197 50.889 6.16927 51.0166 5.70898C51.1442 5.24414 51.3311 4.84538 51.5771 4.5127C51.8232 4.18001 52.1263 3.92253 52.4863 3.74023C52.8464 3.55794 53.2565 3.4668 53.7168 3.4668C54.1497 3.4668 54.528 3.55794 54.8516 3.74023C55.1797 3.92253 55.4577 4.18229 55.6855 4.51953C55.918 4.85221 56.1048 5.24642 56.2461 5.70215C56.3874 6.15332 56.4899 6.64779 56.5537 7.18555V7.5C56.4899 8.01497 56.3874 8.49349 56.2461 8.93555C56.1048 9.3776 55.918 9.76497 55.6855 10.0977C55.4577 10.4258 55.1797 10.681 54.8516 10.8633C54.5234 11.0456 54.1406 11.1367 53.7031 11.1367C53.2428 11.1367 52.8327 11.0433 52.4727 10.8564C52.1172 10.6696 51.8164 10.4076 51.5703 10.0703C51.3288 9.73307 51.1442 9.33659 51.0166 8.88086C50.889 8.42513 50.8252 7.92839 50.8252 7.39062ZM52.7939 7.24707V7.39062C52.7939 7.69596 52.8167 7.98079 52.8623 8.24512C52.9124 8.50944 52.9922 8.74414 53.1016 8.94922C53.2155 9.14974 53.3613 9.30697 53.5391 9.4209C53.7214 9.53027 53.9424 9.58496 54.2021 9.58496C54.5394 9.58496 54.8174 9.50977 55.0361 9.35938C55.2549 9.20443 55.4212 8.99251 55.5352 8.72363C55.6536 8.45475 55.722 8.14486 55.7402 7.79395V6.89844C55.7266 6.61133 55.6855 6.35384 55.6172 6.12598C55.5534 5.89355 55.4577 5.69531 55.3301 5.53125C55.207 5.36719 55.0521 5.23958 54.8652 5.14844C54.6829 5.05729 54.4665 5.01172 54.2158 5.01172C53.9606 5.01172 53.7419 5.07096 53.5596 5.18945C53.3773 5.30339 53.2292 5.46061 53.1152 5.66113C53.0059 5.86165 52.9238 6.09863 52.8691 6.37207C52.819 6.64095 52.7939 6.93262 52.7939 7.24707Z" fill="#FCFCFC"/>
</svg>
